<svg width="50" height="50" viewBox="0 0 50 50" fill="none" xmlns="http://www.w3.org/2000/svg">
<rect width="50" height="50" fill="#EEF7FF"/>
<path d="M31.5434 33.2902L34.5036 31.6932C34.1852 31.4331 33.7337 31.3065 33.3701 31.4877L31.0928 32.7148C31.2355 32.9087 31.352 33.1207 31.439 33.3452L31.5434 33.2902Z" fill="#162A41"/>
<path d="M15.7667 40.4149C15.8308 40.4149 15.8935 40.3959 15.9468 40.3603C16.0002 40.3246 16.0417 40.274 16.0663 40.2147C16.0908 40.1555 16.0972 40.0903 16.0847 40.0274C16.0722 39.9644 16.0413 39.9067 15.9959 39.8613C15.9506 39.816 15.8928 39.7851 15.8299 39.7726C15.767 39.7601 15.7018 39.7665 15.6425 39.7911C15.5833 39.8156 15.5326 39.8572 15.497 39.9105C15.4614 39.9639 15.4424 40.0266 15.4424 40.0907C15.4425 40.1767 15.4767 40.2591 15.5375 40.3199C15.5983 40.3807 15.6807 40.4149 15.7667 40.4149Z" fill="#162A41"/>
<path d="M31.8518 31.3471C31.6014 31.2219 31.3239 31.1608 31.0441 31.1692C30.7643 31.1777 30.491 31.2554 30.2486 31.3955C30.2453 31.3974 30.242 31.3993 30.2386 31.4011L29.665 31.713C29.9493 31.7968 30.2179 31.9265 30.4603 32.097L31.8518 31.3471Z" fill="#162A41"/>
<path d="M12.4941 32.0996L13.6348 41.4531H18.2876L15.4359 32.0996H12.4941ZM16.9341 40.0908C16.9341 40.3218 16.8656 40.5476 16.7372 40.7397C16.6089 40.9318 16.4265 41.0815 16.2131 41.1699C15.9996 41.2583 15.7648 41.2814 15.5382 41.2364C15.3116 41.1913 15.1035 41.08 14.9401 40.9167C14.7768 40.7533 14.6655 40.5452 14.6205 40.3186C14.5754 40.0921 14.5985 39.8572 14.6869 39.6438C14.7753 39.4304 14.9251 39.2479 15.1171 39.1196C15.3092 38.9912 15.535 38.9227 15.7661 38.9227C16.0757 38.9231 16.3726 39.0462 16.5916 39.2652C16.8106 39.4842 16.9338 39.7811 16.9341 40.0908Z" fill="#162A41"/>
<path d="M35.768 31.9696L31.9398 34.0348L31.6192 34.2036C31.6211 34.2446 31.6223 34.2858 31.6223 34.3273C31.6223 34.4392 31.5779 34.5465 31.4988 34.6256C31.4197 34.7048 31.3123 34.7492 31.2005 34.7492C31.1942 34.7492 31.1878 34.7492 31.1814 34.7488L28.5386 34.6293C27.7691 34.5946 26.998 34.6302 26.2349 34.7356C26.1241 34.751 26.0117 34.7216 25.9225 34.6541C25.8333 34.5866 25.7745 34.4864 25.7592 34.3755C25.7439 34.2647 25.7732 34.1523 25.8408 34.0631C25.9083 33.9739 26.0085 33.9152 26.1193 33.8998C26.9333 33.7873 27.7559 33.7493 28.5768 33.7863L30.7257 33.8837C30.6256 33.474 30.391 33.1098 30.0595 32.8492C29.728 32.5886 29.3186 32.4467 28.897 32.4462H25.7986C25.1797 32.4454 24.5689 32.3055 24.0114 32.0367L23.6919 31.882C22.9119 31.5025 22.0424 31.3455 21.179 31.4283C20.3156 31.511 19.4918 31.8303 18.7981 32.3511L18.0399 33.0261C17.6843 33.3424 17.2671 33.5816 16.8145 33.7287L18.2866 38.5573L20.3408 37.2587C20.3472 37.2546 20.3537 37.2506 20.3604 37.247C20.8352 36.9805 21.3935 36.9046 21.9222 37.0345L26.5661 37.8897C27.659 38.085 28.7856 37.929 29.7844 37.4441L37.4424 32.186C37.2214 31.9788 36.9407 31.8464 36.6402 31.8075C36.3397 31.7687 36.0345 31.8254 35.768 31.9696Z" fill="#162A41"/>
<path d="M22.2881 7.70312C22.1762 7.70312 22.0689 7.74757 21.9898 7.82669C21.9107 7.90581 21.8662 8.01311 21.8662 8.125V9.78761H22.71V8.125C22.71 8.01311 22.6655 7.90581 22.5864 7.82669C22.5073 7.74757 22.4 7.70312 22.2881 7.70312Z" fill="#162A41"/>
<path d="M34.5488 19.436C34.4369 19.436 34.3296 19.4805 34.2505 19.5596C34.1714 19.6387 34.127 19.746 34.127 19.8579V21.0341H34.9707V19.9282C34.9707 19.6953 34.7818 19.436 34.5488 19.436Z" fill="#162A41"/>
<path d="M15.1396 15.9395C15.1396 15.8276 15.0952 15.7203 15.0161 15.6411C14.937 15.562 14.8297 15.5176 14.7178 15.5176C14.6059 15.5176 14.4986 15.562 14.4195 15.6411C14.3403 15.7203 14.2959 15.8276 14.2959 15.9395V16.6313H15.1396V15.9395Z" fill="#162A41"/>
<path d="M26.7793 14.6672V28.5705H31.9V19.1516C31.359 19.0923 30.8361 18.9227 30.3633 18.6532C29.8906 18.3837 29.4782 18.0202 29.1516 17.5849C28.6405 16.9031 28.3653 16.0735 28.3677 15.2214C28.368 15.036 28.3812 14.8508 28.4073 14.6672H26.7793ZM30.7631 26.486H27.8088C27.6969 26.486 27.5896 26.4415 27.5105 26.3624C27.4314 26.2833 27.3869 26.176 27.3869 26.0641C27.3869 25.9522 27.4314 25.8449 27.5105 25.7658C27.5896 25.6867 27.6969 25.6422 27.8088 25.6422H30.7629C30.8748 25.6422 30.9821 25.6867 31.0612 25.7658C31.1404 25.8449 31.1848 25.9522 31.1848 26.0641C31.1848 26.176 31.1404 26.2833 31.0612 26.3624C30.9821 26.4415 30.8748 26.486 30.7629 26.486H30.7631ZM30.7631 24.1278H27.8088C27.6969 24.1278 27.5896 24.0833 27.5105 24.0042C27.4314 23.9251 27.3869 23.8178 27.3869 23.7059C27.3869 23.594 27.4314 23.4867 27.5105 23.4076C27.5896 23.3285 27.6969 23.284 27.8088 23.284H30.7629C30.8748 23.284 30.9821 23.3285 31.0612 23.4076C31.1404 23.4867 31.1848 23.594 31.1848 23.7059C31.1848 23.8178 31.1404 23.9251 31.0612 24.0042C30.9821 24.0833 30.8748 24.1278 30.7629 24.1278H30.7631ZM31.185 21.3478C31.185 21.4597 31.1406 21.567 31.0614 21.6461C30.9823 21.7252 30.875 21.7696 30.7631 21.7696H27.8088C27.6969 21.7696 27.5896 21.7252 27.5105 21.6461C27.4314 21.567 27.3869 21.4597 27.3869 21.3478C27.3869 21.2359 27.4314 21.1286 27.5105 21.0495C27.5896 20.9703 27.6969 20.9259 27.8088 20.9259H30.7629C30.8748 20.9259 30.9821 20.9703 31.0612 21.0495C31.1404 21.1286 31.1848 21.2359 31.1848 21.3478H31.185ZM29.4209 18.5677C29.5328 18.5677 29.6401 18.6121 29.7192 18.6912C29.7983 18.7704 29.8427 18.8777 29.8427 18.9896C29.8427 19.1014 29.7983 19.2088 29.7192 19.2879C29.6401 19.367 29.5328 19.4114 29.4209 19.4114H27.8088C27.6969 19.4114 27.5896 19.367 27.5105 19.2879C27.4314 19.2088 27.3869 19.1014 27.3869 18.9896C27.3869 18.8777 27.4314 18.7704 27.5105 18.6912C27.5896 18.6121 27.6969 18.5677 27.8088 18.5677H29.4209ZM28.5005 16.6314C28.5005 16.7433 28.456 16.8506 28.3769 16.9297C28.2978 17.0088 28.1905 17.0533 28.0786 17.0533H27.809C27.6971 17.0533 27.5898 17.0088 27.5107 16.9297C27.4316 16.8506 27.3872 16.7433 27.3872 16.6314C27.3872 16.5195 27.4316 16.4122 27.5107 16.3331C27.5898 16.254 27.6971 16.2095 27.809 16.2095H28.0786C28.1905 16.2096 28.2977 16.2541 28.3768 16.3332C28.4558 16.4123 28.5003 16.5196 28.5003 16.6314H28.5005Z" fill="#162A41"/>
<path d="M17.2699 18.1121L12.3682 20.5241V28.5705H17.2699V18.1121ZM16.1014 27.1493H13.6107C13.4988 27.1493 13.3915 27.1049 13.3123 27.0258C13.2332 26.9466 13.1888 26.8393 13.1888 26.7274C13.1888 26.6156 13.2332 26.5082 13.3123 26.4291C13.3915 26.35 13.4988 26.3056 13.6107 26.3056H16.1014C16.2133 26.3056 16.3206 26.35 16.3997 26.4291C16.4788 26.5082 16.5233 26.6156 16.5233 26.7274C16.5233 26.8393 16.4788 26.9466 16.3997 27.0258C16.3206 27.1049 16.2133 27.1493 16.1014 27.1493ZM16.1014 25.5349H13.6107C13.4988 25.5349 13.3915 25.4905 13.3123 25.4114C13.2332 25.3323 13.1888 25.225 13.1888 25.1131C13.1888 25.0012 13.2332 24.8939 13.3123 24.8148C13.3915 24.7356 13.4988 24.6912 13.6107 24.6912H16.1014C16.2133 24.6912 16.3206 24.7356 16.3997 24.8148C16.4788 24.8939 16.5233 25.0012 16.5233 25.1131C16.5233 25.225 16.4788 25.3323 16.3997 25.4114C16.3206 25.4905 16.2133 25.5349 16.1014 25.5349ZM16.1014 23.9206H13.6107C13.4988 23.9206 13.3915 23.8762 13.3123 23.7971C13.2332 23.718 13.1888 23.6107 13.1888 23.4988C13.1888 23.3869 13.2332 23.2796 13.3123 23.2005C13.3915 23.1213 13.4988 23.0769 13.6107 23.0769H16.1014C16.2133 23.0769 16.3206 23.1213 16.3997 23.2005C16.4788 23.2796 16.5233 23.3869 16.5233 23.4988C16.5233 23.6107 16.4788 23.718 16.3997 23.7971C16.3206 23.8762 16.2133 23.9206 16.1014 23.9206ZM16.1014 22.3063H13.6107C13.4988 22.3063 13.3915 22.2618 13.3123 22.1827C13.2332 22.1036 13.1888 21.9963 13.1888 21.8844C13.1888 21.7725 13.2332 21.6652 13.3123 21.5861C13.3915 21.507 13.4988 21.4625 13.6107 21.4625H16.1014C16.2133 21.4625 16.3206 21.507 16.3997 21.5861C16.4788 21.6652 16.5233 21.7725 16.5233 21.8844C16.5233 21.9963 16.4788 22.1036 16.3997 22.1827C16.3206 22.2618 16.2133 22.3063 16.1014 22.3063Z" fill="#162A41"/>
<path d="M18.1133 28.5703H25.9351V12.6206H18.1133V28.5703ZM19.7335 14.4816H24.3152C24.4271 14.4816 24.5344 14.5261 24.6135 14.6052C24.6926 14.6843 24.7371 14.7916 24.7371 14.9035C24.7371 15.0154 24.6926 15.1227 24.6135 15.2018C24.5344 15.2809 24.4271 15.3254 24.3152 15.3254H19.7335C19.6216 15.3254 19.5143 15.2809 19.4352 15.2018C19.3561 15.1227 19.3116 15.0154 19.3116 14.9035C19.3116 14.7916 19.3561 14.6843 19.4352 14.6052C19.5143 14.5261 19.6216 14.4816 19.7335 14.4816ZM19.7335 16.8884H24.3152C24.4271 16.8884 24.5344 16.9328 24.6135 17.0119C24.6926 17.091 24.7371 17.1983 24.7371 17.3102C24.7371 17.4221 24.6926 17.5294 24.6135 17.6085C24.5344 17.6877 24.4271 17.7321 24.3152 17.7321H19.7335C19.6216 17.7321 19.5143 17.6877 19.4352 17.6085C19.3561 17.5294 19.3116 17.4221 19.3116 17.3102C19.3116 17.1983 19.3561 17.091 19.4352 17.0119C19.5143 16.9328 19.6216 16.8884 19.7335 16.8884ZM19.7335 19.295H24.3152C24.4271 19.295 24.5344 19.3395 24.6135 19.4186C24.6926 19.4977 24.7371 19.605 24.7371 19.7169C24.7371 19.8288 24.6926 19.9361 24.6135 20.0152C24.5344 20.0943 24.4271 20.1388 24.3152 20.1388H19.7335C19.6216 20.1388 19.5143 20.0943 19.4352 20.0152C19.3561 19.9361 19.3116 19.8288 19.3116 19.7169C19.3116 19.605 19.3561 19.4977 19.4352 19.4186C19.5143 19.3395 19.6216 19.295 19.7335 19.295ZM19.7335 21.7018H24.3152C24.4271 21.7018 24.5344 21.7463 24.6135 21.8254C24.6926 21.9045 24.7371 22.0118 24.7371 22.1237C24.7371 22.2356 24.6926 22.3429 24.6135 22.422C24.5344 22.5011 24.4271 22.5456 24.3152 22.5456H19.7335C19.6216 22.5456 19.5143 22.5011 19.4352 22.422C19.3561 22.3429 19.3116 22.2356 19.3116 22.1237C19.3116 22.0118 19.3561 21.9045 19.4352 21.8254C19.5143 21.7463 19.6216 21.7018 19.7335 21.7018ZM19.7335 24.1085H24.3152C24.4271 24.1085 24.5344 24.1529 24.6135 24.232C24.6926 24.3111 24.7371 24.4184 24.7371 24.5303C24.7371 24.6422 24.6926 24.7495 24.6135 24.8286C24.5344 24.9078 24.4271 24.9522 24.3152 24.9522H19.7335C19.6216 24.9522 19.5143 24.9078 19.4352 24.8286C19.3561 24.7495 19.3116 24.6422 19.3116 24.5303C19.3116 24.4184 19.3561 24.3111 19.4352 24.232C19.5143 24.1529 19.6216 24.1085 19.7335 24.1085ZM19.7335 26.5152H24.3152C24.4271 26.5152 24.5344 26.5596 24.6135 26.6388C24.6926 26.7179 24.7371 26.8252 24.7371 26.9371C24.7371 27.0489 24.6926 27.1563 24.6135 27.2354C24.5344 27.3145 24.4271 27.3589 24.3152 27.3589H19.7335C19.6216 27.3589 19.5143 27.3145 19.4352 27.2354C19.3561 27.1563 19.3116 27.0489 19.3116 26.9371C19.3116 26.8252 19.3561 26.7179 19.4352 26.6388C19.5143 26.5596 19.6216 26.5152 19.7335 26.5152Z" fill="#162A41"/>
<path d="M15.5406 17.1309H13.8936V18.8328L15.5406 18.0223V17.1309Z" fill="#162A41"/>
<path d="M36.3546 22.8364H32.7432V28.5704H36.3546V22.8364ZM35.1777 27.8872H33.768C33.6562 27.8872 33.5488 27.8427 33.4697 27.7636C33.3906 27.6845 33.3462 27.5772 33.3462 27.4653C33.3462 27.3534 33.3906 27.2461 33.4697 27.167C33.5488 27.0879 33.6562 27.0434 33.768 27.0434H35.1776C35.2895 27.0434 35.3968 27.0879 35.4759 27.167C35.555 27.2461 35.5995 27.3534 35.5995 27.4653C35.5995 27.5772 35.555 27.6845 35.4759 27.7636C35.3968 27.8427 35.2895 27.8872 35.1776 27.8872H35.1777ZM35.1777 26.2959H33.768C33.6562 26.2959 33.5488 26.2514 33.4697 26.1723C33.3906 26.0932 33.3462 25.9859 33.3462 25.874C33.3462 25.7621 33.3906 25.6548 33.4697 25.5757C33.5488 25.4966 33.6562 25.4521 33.768 25.4521H35.1776C35.2895 25.4521 35.3968 25.4966 35.4759 25.5757C35.555 25.6548 35.5995 25.7621 35.5995 25.874C35.5995 25.9859 35.555 26.0932 35.4759 26.1723C35.3968 26.2514 35.2895 26.2959 35.1776 26.2959H35.1777ZM35.1777 24.7046H33.768C33.6562 24.7046 33.5488 24.6601 33.4697 24.581C33.3906 24.5019 33.3462 24.3946 33.3462 24.2827C33.3462 24.1708 33.3906 24.0635 33.4697 23.9844C33.5488 23.9053 33.6562 23.8608 33.768 23.8608H35.1776C35.2895 23.8608 35.3968 23.9053 35.4759 23.9844C35.555 24.0635 35.5995 24.1708 35.5995 24.2827C35.5995 24.3946 35.555 24.5019 35.4759 24.581C35.3968 24.6601 35.2895 24.7046 35.1776 24.7046H35.1777Z" fill="#162A41"/>
<path d="M32.3214 12.1108C31.7062 12.1108 31.1049 12.2932 30.5934 12.635C30.0818 12.9768 29.6832 13.4625 29.4477 14.0309C29.2123 14.5993 29.1507 15.2247 29.2707 15.828C29.3907 16.4314 29.6869 16.9856 30.1219 17.4206C30.5569 17.8556 31.1112 18.1519 31.7145 18.2719C32.3179 18.3919 32.9433 18.3303 33.5116 18.0949C34.08 17.8595 34.5658 17.4608 34.9076 16.9493C35.2494 16.4378 35.4318 15.8364 35.4318 15.2213C35.4308 14.3966 35.1029 13.606 34.5198 13.0229C33.9367 12.4398 33.1461 12.1118 32.3214 12.1108ZM32.3214 14.7803C32.6178 14.7801 32.9047 14.8846 33.1315 15.0754C33.3583 15.2662 33.5103 15.531 33.5608 15.823C33.6113 16.115 33.5569 16.4155 33.4073 16.6713C33.2577 16.9272 33.0226 17.1219 32.7433 17.2212V17.3711C32.7433 17.4829 32.6989 17.5903 32.6197 17.6694C32.5406 17.7485 32.4333 17.7929 32.3214 17.7929C32.2095 17.7929 32.1022 17.7485 32.0231 17.6694C31.944 17.5903 31.8996 17.4829 31.8996 17.3711V17.2214C31.6553 17.1342 31.444 16.9738 31.2944 16.762C31.1448 16.5503 31.0643 16.2974 31.0638 16.0381C31.0638 15.9263 31.1083 15.819 31.1874 15.7398C31.2665 15.6607 31.3738 15.6163 31.4857 15.6163C31.5976 15.6163 31.7049 15.6607 31.784 15.7398C31.8631 15.819 31.9076 15.9263 31.9076 16.0381C31.9077 16.1468 31.9506 16.251 32.0269 16.3283C32.1031 16.4057 32.2068 16.45 32.3154 16.4517C32.3174 16.4517 32.3195 16.4517 32.3215 16.4517C32.3235 16.4517 32.3256 16.4517 32.3276 16.4517C32.4366 16.4497 32.5403 16.4048 32.6164 16.3268C32.6924 16.2488 32.7346 16.1439 32.7338 16.0349C32.733 15.926 32.6893 15.8218 32.6121 15.7449C32.5349 15.668 32.4305 15.6246 32.3215 15.6243C32.0252 15.6245 31.7383 15.52 31.5116 15.3292C31.2848 15.1384 31.1328 14.8736 31.0823 14.5816C31.0319 14.2896 31.0862 13.9892 31.2357 13.7334C31.3853 13.4776 31.6204 13.2828 31.8996 13.1835V13.0717C31.8996 12.9598 31.9441 12.8525 32.0232 12.7733C32.1023 12.6942 32.2096 12.6498 32.3215 12.6498C32.4334 12.6498 32.5407 12.6942 32.6198 12.7733C32.6989 12.8525 32.7434 12.9598 32.7434 13.0717V13.1833C32.9876 13.2704 33.1989 13.4308 33.3485 13.6426C33.4981 13.8544 33.5787 14.1072 33.5791 14.3665C33.5791 14.4784 33.5347 14.5857 33.4555 14.6648C33.3764 14.744 33.2691 14.7884 33.1572 14.7884C33.0453 14.7884 32.938 14.744 32.8589 14.6648C32.7798 14.5857 32.7354 14.4784 32.7354 14.3665C32.7354 14.2847 32.7111 14.2047 32.6656 14.1366C32.6202 14.0685 32.5555 14.0155 32.4799 13.9841C32.4043 13.9528 32.3211 13.9446 32.2408 13.9605C32.1605 13.9765 32.0868 14.0159 32.0289 14.0738C31.971 14.1317 31.9316 14.2054 31.9156 14.2857C31.8996 14.366 31.9078 14.4492 31.9391 14.5248C31.9705 14.6005 32.0235 14.6651 32.0916 14.7106C32.1596 14.7561 32.2396 14.7803 32.3215 14.7803H32.3214Z" fill="#162A41"/>
<path d="M24.7142 10.2427H19.334V11.7768H24.7142V10.2427Z" fill="#162A41"/>
<path d="M35.2186 21.373H33.8799V21.9926H35.2186V21.373Z" fill="#162A41"/>
</svg>
