<svg width="50" height="50" viewBox="0 0 50 50" fill="none" xmlns="http://www.w3.org/2000/svg">
<rect width="50" height="50" fill="#EEF7FF"/>
<path d="M24.9996 10C19.0087 10 14.1348 14.8739 14.1348 20.8648C14.1348 28.2996 23.8578 39.2144 24.2717 39.6754C24.6605 40.1085 25.3394 40.1078 25.7275 39.6754C26.1415 39.2144 35.8645 28.2996 35.8645 20.8648C35.8644 14.8739 30.9905 10 24.9996 10ZM24.9996 26.3312C21.9854 26.3312 19.5333 23.879 19.5333 20.8648C19.5333 17.8506 21.9855 15.3985 24.9996 15.3985C28.0137 15.3985 30.4659 17.8507 30.4659 20.8649C30.4659 23.879 28.0137 26.3312 24.9996 26.3312Z" fill="#162A41"/>
</svg>
