<svg width="53" height="17" viewBox="0 0 53 17" fill="none" xmlns="http://www.w3.org/2000/svg">
<path d="M20.6021 5.42844C20.7621 5.29573 21 5.41988 21 5.62966V14.3845C21 15.519 20.1182 16.4395 19.0312 16.4395H1.96875C0.881836 16.4395 0 15.519 0 14.3845V5.63394C0 5.41988 0.233789 5.30001 0.397852 5.43273C1.3166 6.17764 2.53477 7.12376 6.71836 10.2961C7.58379 10.9554 9.04395 12.3424 10.5 12.3339C11.9643 12.3467 13.4531 10.9297 14.2857 10.2961C18.4693 7.12376 19.6834 6.17336 20.6021 5.42844ZM10.5 10.9596C11.4516 10.9768 12.8215 9.70955 13.5105 9.18726C18.9533 5.06455 19.3676 4.70494 20.6227 3.67747C20.8605 3.48482 21 3.18514 21 2.86834V2.05493C21 0.920438 20.1182 0 19.0312 0H1.96875C0.881836 0 0 0.920438 0 2.05493V2.86834C0 3.18514 0.139453 3.48054 0.377344 3.67747C1.63242 4.70066 2.04668 5.06455 7.48945 9.18726C8.17852 9.70955 9.54844 10.9768 10.5 10.9596Z" fill="#2A2C30"/>
<path d="M40.5814 16.4395H37.2643V5.46367H40.5814V16.4395ZM38.9211 3.96647C37.8604 3.96647 37 3.06375 37 1.97388C37 1.45037 37.2024 0.94831 37.5627 0.578136C37.9229 0.207962 38.4116 0 38.9211 0C39.4306 0 39.9192 0.207962 40.2795 0.578136C40.6397 0.94831 40.8421 1.45037 40.8421 1.97388C40.8421 3.06375 39.9814 3.96647 38.9211 3.96647ZM52.9964 16.4395H49.6864V11.0965C49.6864 9.82316 49.6614 8.19019 47.9618 8.19019C46.2371 8.19019 45.9729 9.57363 45.9729 11.0048V16.4395H42.6593V5.46367H45.8407V6.96087H45.8871C46.33 6.09851 47.4118 5.18845 49.0257 5.18845C52.3829 5.18845 53 7.45994 53 10.4103V16.4395H52.9964Z" fill="#2A2C30"/>
</svg>
